<?xml version="1.0"?>
<svg xmlns="http://www.w3.org/2000/svg" height="512px" viewBox="0 0 512 512" width="512px" class=""><g><path d="m397.394531 0c-63.195312 0-114.609375 51.5-114.609375 114.800781 0 10.359375 1.378906 20.40625 3.960938 29.960938-9.835938-2.761719-20.203125-4.238281-30.90625-4.238281-63.195313 0-114.605469 51.5-114.605469 114.800781 0 10.859375 1.511719 21.371093 4.335937 31.332031-9.851562-2.769531-20.234374-4.253906-30.960937-4.253906-63.195313-.003906-114.609375 51.496094-114.609375 114.796875s51.414062 114.800781 114.605469 114.800781c63.195312 0 114.609375-51.5 114.609375-114.800781 0-10.859375-1.515625-21.371094-4.339844-31.335938 9.851562 2.773438 20.238281 4.257813 30.964844 4.257813 63.195312 0 114.605468-51.5 114.605468-114.800782 0-10.359374-1.378906-20.40625-3.957031-29.960937 9.832031 2.761719 20.199219 4.238281 30.902344 4.238281 63.195313.003906 114.609375-51.496094 114.609375-114.796875s-51.414062-114.800781-114.605469-114.800781zm-282.789062 482c-46.652344 0-84.605469-38.039062-84.605469-84.800781 0-46.757813 37.953125-84.800781 84.605469-84.800781 46.652343 0 84.609375 38.042968 84.609375 84.800781 0 46.761719-37.953125 84.800781-84.609375 84.800781zm141.234375-141.878906c-46.652344 0-84.609375-38.042969-84.609375-84.800782 0-46.757812 37.957031-84.796874 84.609375-84.796874s84.605468 38.039062 84.605468 84.796874c0 46.757813-37.953124 84.800782-84.605468 84.800782zm141.554687-140.519532c-46.65625 0-84.609375-38.042968-84.609375-84.800781 0-46.761719 37.953125-84.800781 84.609375-84.800781 46.652344 0 84.605469 38.039062 84.605469 84.800781 0 46.757813-37.953125 84.800781-84.605469 84.800781zm0 0" data-original="#000000" class="active-path" data-old_color="#000000" fill="#FFFFFF"/><path d="m367.394531 112.542969c8.28125 0 15-6.714844 15-15v-14.890625c0-8.28125-6.71875-15-15-15-8.285156 0-15 6.71875-15 15v14.890625c0 8.285156 6.714844 15 15 15zm0 0" data-original="#000000" class="active-path" data-old_color="#000000" fill="#FFFFFF"/><path d="m427.394531 112.542969c8.28125 0 15-6.714844 15-15v-14.890625c0-8.28125-6.71875-15-15-15-8.285156 0-15 6.71875-15 15v14.890625c0 8.285156 6.714844 15 15 15zm0 0" data-original="#000000" class="active-path" data-old_color="#000000" fill="#FFFFFF"/><path d="m419.070312 127.382812c-13.167968 8.777344-30.1875 8.777344-43.355468 0-6.894532-4.59375-16.207032-2.734374-20.804688 4.160157-4.59375 6.894531-2.730468 16.203125 4.164063 20.800781 11.640625 7.757812 24.980469 11.640625 38.320312 11.640625 13.339844 0 26.679688-3.882813 38.320313-11.640625 6.890625-4.597656 8.753906-13.90625 4.160156-20.800781-4.597656-6.894531-13.910156-8.757813-20.804688-4.160157zm0 0" data-original="#000000" class="active-path" data-old_color="#000000" fill="#FFFFFF"/><path d="m226.160156 255.632812c8.285156 0 15-6.714843 15-15v-14.890624c0-8.28125-6.714844-15-15-15-8.28125 0-15 6.71875-15 15v14.890624c0 8.285157 6.714844 15 15 15zm0 0" data-original="#000000" class="active-path" data-old_color="#000000" fill="#FFFFFF"/><path d="m286.160156 210.742188c-8.28125 0-15 6.71875-15 15v14.890624c0 8.285157 6.71875 15 15 15 8.285156 0 15-6.714843 15-15v-14.890624c0-8.28125-6.714844-15-15-15zm0 0" data-original="#000000" class="active-path" data-old_color="#000000" fill="#FFFFFF"/><path d="m285.839844 269.257812h-60c-8.285156 0-15 6.714844-15 15 0 8.28125 6.714844 15 15 15h60c8.28125 0 15-6.71875 15-15 0-8.285156-6.714844-15-15-15zm0 0" data-original="#000000" class="active-path" data-old_color="#000000" fill="#FFFFFF"/><path d="m84.605469 393.945312c8.285156 0 15-6.71875 15-15v-14.890624c0-8.285157-6.714844-15-15-15-8.28125 0-15 6.714843-15 15v14.890624c0 8.285157 6.71875 15 15 15zm0 0" data-original="#000000" class="active-path" data-old_color="#000000" fill="#FFFFFF"/><path d="m144.605469 393.945312c8.285156 0 15-6.71875 15-15v-14.890624c0-8.285157-6.714844-15-15-15-8.28125 0-15 6.714843-15 15v14.890624c0 8.285157 6.71875 15 15 15zm0 0" data-original="#000000" class="active-path" data-old_color="#000000" fill="#FFFFFF"/><path d="m152.929688 417.863281c-23.28125-15.519531-53.363282-15.519531-76.644532 0-6.890625 4.597657-8.753906 13.910157-4.160156 20.800781 4.597656 6.894532 13.910156 8.761719 20.800781 4.160157 13.171875-8.777344 30.191407-8.777344 43.359375 0 2.558594 1.707031 5.449219 2.523437 8.308594 2.523437 4.84375 0 9.601562-2.347656 12.492188-6.683594 4.597656-6.890624 2.734374-16.203124-4.15625-20.800781zm0 0" data-original="#000000" class="active-path" data-old_color="#000000" fill="#FFFFFF"/></g> </svg>
