<?xml version="1.0"?>
<svg xmlns="http://www.w3.org/2000/svg" height="512px" viewBox="0 0 512 512" width="512px" class=""><g><path d="m489.5 467h-51v-18.667969c0-4.140625-3.359375-7.5-7.5-7.5s-7.5 3.359375-7.5 7.5v18.667969h-15v-149.5h15v97.832031c0 4.144531 3.359375 7.5 7.5 7.5s7.5-3.355469 7.5-7.5v-97.832031h12.5c12.40625 0 22.5-10.09375 22.5-22.5s-10.09375-22.5-22.5-22.5h-2.011719v-7.5c0-4.40625-1.046875-8.574219-2.898437-12.269531h9.910156c4.140625 0 7.5-3.359375 7.5-7.5v-237.730469c0-4.140625-3.359375-7.5-7.5-7.5h-400c-4.140625 0-7.5 3.359375-7.5 7.5v24c0 4.140625 3.359375 7.5 7.5 7.5s7.5-3.359375 7.5-7.5v-16.5h385v222.730469l-40.992188-.230469c1.660157-17.585938 3.3125-40.558594 3.3125-62.339844 0-21.109375-14.226562-38.457031-24.410156-48.171875 11.746094-14.707031 10.816406-36.273437-2.800781-49.890625-14.621094-14.621094-38.410156-14.621094-53.03125 0l-34.097656 34.09375c-3.613281 3.621094-3.613281 9.507813.003906 13.128906l39.902344 39.902344c1.8125 1.8125 4.1875 2.714844 6.566406 2.714844 2.375 0 4.753906-.902344 6.5625-2.714844l26.46875-26.464844c8.328125 7.886719 19.835937 21.640626 19.835937 37.402344 0 22.488282-1.890624 46.730469-3.382812 62.339844l-56.1875.230469c-4.140625 0-7.5 3.359375-7.5 7.5s3.359375 7.5 7.5 7.5h12.636719c-1.851563 3.695312-2.898438 7.863281-2.898438 12.269531v7.5h-103.183593v-19.769531h60.945312c4.140625 0 7.5-3.359375 7.5-7.5s-3.359375-7.5-7.5-7.5h-8.796875c.347656-1.449219.546875-2.949219.546875-4.5v-90c0-10.75-8.746094-19.5-19.5-19.5h-116c-10.753906 0-19.5 8.75-19.5 19.5v90c0 1.550781.199219 3.050781.546875 4.5h-13.859375v-7.730469c0-6.339844-5.160156-11.5-11.5-11.5h-32c-6.339844 0-11.5 5.160156-11.5 11.5v7.730469h-8.6875v-174.230469c0-4.140625-3.359375-7.5-7.5-7.5s-7.5 3.359375-7.5 7.5v181.730469c0 4.140625 3.359375 7.5 7.5 7.5h16.1875v19.769531h-11.1875c-12.40625 0-22.5 10.09375-22.5 22.5s10.09375 22.5 22.5 22.5h12.5v149.5h-51c-12.40625 0-22.5 10.09375-22.5 22.5s10.09375 22.5 22.5 22.5h467c12.40625 0 22.5-10.09375 22.5-22.5s-10.09375-22.5-22.5-22.5zm-146.546875-317.425781-31.820313-31.816407 30.050782-30.054687c8.773437-8.773437 23.046875-8.773437 31.820312 0 8.773438 8.773437 8.773438 23.046875 0 31.820313zm-224.453125 317.425781v-149.5h135v82.5c0 4.140625 3.359375 7.5 7.5 7.5h132.5v59.5zm275-74.5h-125v-75h125zm-32.511719-127.5c0-6.085938 4.375-11.164062 10.144531-12.269531h52.710938c5.769531 1.105469 10.144531 6.183593 10.144531 12.269531v7.5h-73zm-133.183593 7.34375h-19.609376v-19.613281h19.609376zm-72.304688-104.542969h125v41.921875h-125zm4.5-29.070312h116c2.480469 0 4.5 2.019531 4.5 4.5v9.570312h-125v-9.570312c0-2.480469 2.019531-4.5 4.5-4.5zm-4.5 94.5v-8.507813h125v8.507813c0 2.476562-2.011719 4.492187-4.484375 4.5h-116.03125c-2.472656-.007813-4.484375-2.023438-4.484375-4.5zm37.695312 19.5v19.769531h-66.007812v-19.769531zm-106.007812-19.230469h25v39h-25zm-33.6875 61.5c0-4.136719 3.363281-7.5 7.5-7.5h390c4.136719 0 7.5 3.363281 7.5 7.5s-3.363281 7.5-7.5 7.5h-390c-4.136719 0-7.5-3.363281-7.5-7.5zm35 22.5h15v149.5h-15zm401 179.5h-467c-4.136719 0-7.5-3.363281-7.5-7.5s3.363281-7.5 7.5-7.5h467c4.136719 0 7.5 3.363281 7.5 7.5s-3.363281 7.5-7.5 7.5zm0 0" data-original="#000000" class="active-path" data-old_color="#000000" fill="#FFFFFF"/><path d="m313 362.5h34c4.140625 0 7.5-3.359375 7.5-7.5s-3.359375-7.5-7.5-7.5h-34c-4.140625 0-7.5 3.359375-7.5 7.5s3.359375 7.5 7.5 7.5zm0 0" data-original="#000000" class="active-path" data-old_color="#000000" fill="#FFFFFF"/></g> </svg>
